<?xml version="1.0" encoding="UTF-8"?>
<svg xmlns="http://www.w3.org/2000/svg" xmlns:xlink="http://www.w3.org/1999/xlink" viewBox="0 0 139.76 220">
  <defs>
    <style>
      .cls-1 {
        fill: #3f3f3f;
      }

      .cls-2 {
        letter-spacing: -.01em;
      }

      .cls-3, .cls-4 {
        fill: #fff;
      }

      .cls-3, .cls-5 {
        stroke: #000;
        stroke-linecap: round;
        stroke-linejoin: round;
        stroke-width: 1.1px;
      }

      .cls-6, .cls-7 {
        fill: none;
      }

      .cls-4 {
        font-family: NotoSansKR-Medium-KSCpc-EUC-H, 'Noto Sans KR';
        font-size: 20.25px;
        font-weight: 500;
      }

      .cls-7 {
        clip-path: url(#clippath);
      }

      .cls-5 {
        fill: #d3a688;
      }
    </style>
    <clipPath id="clippath">
      <path class="cls-6" d="m45.55,109.96l3.67,4.04s2.96-.87,2.3-5.14c-.66-4.27-3.26-5.59-6.79-5.55-3.53.04-5.39,1.6-7.18,1.86s-2.8-2.07-6.99-2.07c-2.8,0-4.43,1.42-5.59,4.08-1.09,2.49-.26,6.01,1.19,7.05,2.38,1.7,3.99,2.48,6.43,1.91,2.43-.57,3.8-2.39,6.75-3.75,2.95-1.36,6.23-2.43,6.23-2.43Z"/>
    </clipPath>
  </defs>
  <g id="_리소스명" data-name="리소스명">
    <text class="cls-4" transform="translate(-204.62 -21.81)"><tspan x="0" y="0">1 - 3조각내서 드리기 (뭉이 / 밧줄 / 벌린틈) -&gt; 확장자 S</tspan><tspan class="cls-2" x="459.44" y="0">V</tspan><tspan x="471.24" y="0">G</tspan></text>
  </g>
  <g id="_본작업" data-name="본작업">
    <path d="m74.27,60.1c-10.19,11.59-19.45,23.97-28.68,36.32-2.71,3.81-5.82,7.74-6.31,12.51-.07,1.54.88,2.81,1.54,4.23.6,1.12,1.24,2.24,1.9,3.34,9.44,15.31,20.13,29.86,31.56,43.75-6.89-7.66-13.26-15.77-19.36-24.07-4.57-6.23-8.98-12.6-13-19.2-1.32-2.31-2.74-4.4-3.55-7-.22-1.4.12-2.74.53-4.05,1.28-3.72,3.66-6.95,5.96-10.05,3.08-4.13,6.2-8.23,9.4-12.27,6.42-8.04,12.86-16.11,20.03-23.51h0Z"/>
    <path d="m50.22,72.24c-2.83,6.19-5.55,12.42-8.12,18.71-1.26,3.15-2.51,6.31-3.65,9.5-1,3.09-2.37,6.44-2.38,9.67,1.03,6.63,4.39,12.75,7.18,18.81,2.97,6.11,6.18,12.11,9.47,18.05-3.67-5.73-7.04-11.65-10.18-17.7-2.32-4.56-4.54-9.19-6.24-14.03-.82-2.4-1.63-5.17-.94-7.73,3.27-12.37,9.13-23.91,14.85-35.28h0Z"/>
    <g>
      <polyline class="cls-1" points="139.76 217.04 43.2 108.33 139.76 3.69"/>
      <path d="m139.76,217.04c-27.3-29.97-69.74-77.67-97.04-108.28-.22-.25-.21-.63,0-.87,16-17.27,57.09-61.64,72.66-78.25,0,0,24.37-25.95,24.37-25.95-11.91,13.2-35.92,39.55-47.91,52.66,0,0-48.17,52.42-48.17,52.42v-.87c27.34,30.78,69.36,78.42,96.08,109.14h0Z"/>
    </g>
    <g class="cls-7">
      <path class="cls-3" d="m48.36,106.48c-1.5-1.5-4.49-2.38-8.35-.32-1.64.87-3.16,1.18-4.92,1.26-.78-1.6-2.42-2.7-4.32-2.7-2.65,0-4.8,2.15-4.8,4.8s2.15,4.8,4.8,4.8c1.92,0,3.57-1.13,4.34-2.75,2.13-.09,4.4-.46,6.84-1.75,1.74-.92,3.01-.86,3.47-.41.32.32.2.83.1.95-.91.68-1.11,1.97-.44,2.89.41.56,1.04.85,1.68.85.42,0,.85-.13,1.22-.4,1.02-.75,1.67-1.97,1.78-3.36.11-1.45-.4-2.86-1.41-3.87Zm-17.59,4.53c-.82,0-1.49-.67-1.49-1.49s.67-1.49,1.49-1.49,1.49.67,1.49,1.49-.67,1.49-1.49,1.49Z"/>
    </g>
    <polyline class="cls-5" points="-.24 108.03 30.53 108.03 30.53 111.01 -.17 111.01"/>
  </g>
</svg>