<?xml version="1.0" encoding="UTF-8"?>
<svg xmlns="http://www.w3.org/2000/svg" viewBox="0 0 130.1 220">
  <defs>
    <style>
      .cls-1, .cls-2, .cls-3, .cls-4, .cls-5, .cls-6 {
        stroke: #000;
        stroke-linecap: round;
        stroke-linejoin: round;
      }

      .cls-1, .cls-7 {
        fill: #fffef8;
      }

      .cls-2 {
        fill: #fca497;
      }

      .cls-8 {
        letter-spacing: -.01em;
      }

      .cls-9 {
        fill: #ffd49e;
      }

      .cls-3, .cls-5 {
        fill: none;
      }

      .cls-4, .cls-10 {
        fill: #ffbb67;
      }

      .cls-4, .cls-5 {
        stroke-width: 1.3px;
      }

      .cls-11 {
        fill: #fff;
        font-family: NotoSansKR-Medium-KSCpc-EUC-H, 'Noto Sans KR';
        font-size: 20.25px;
        font-weight: 500;
      }

      .cls-6 {
        fill: #d3a688;
        stroke-width: 1.1px;
      }
    </style>
  </defs>
  <g id="_리소스명" data-name="리소스명">
    <text class="cls-11" transform="translate(8.91 -21.81)"><tspan x="0" y="0">1 - 3조각내서 드리기 (뭉이 / 밧줄 / 벌린틈) -&gt; 확장자 S</tspan><tspan class="cls-8" x="459.44" y="0">V</tspan><tspan x="471.24" y="0">G</tspan></text>
  </g>
  <g id="_본작업" data-name="본작업">
    <g>
      <path class="cls-6" d="m36.54,148.02c-3.04,0-6.61-.23-9.83-1.01-1.9-.46-5.76-1.15-5.76-3.98,0-2.66,3.81-3.63,5.07-3.95,2.58-.66,5.95-1.02,9.5-1.02,1.49,0,6.49,0,8.29.13,1.54.1,3.93.39,6.02.89,3.12.75,4.69,1.72,5.09,3.15.19.69-.07,1.3-.49,1.9-1.12,1.62-3.8,2.59-6.78,3.15-3.78.71-7.48.75-11.1.75Zm-11.92-5.14c0,.77,3,1.3,4.75,1.54,6.94.93,10.11.3,16.98-.3,2.08-.18,4.36-1.02,5.09-1.32-1.32-.62-4.49-1.34-7.85-1.56-1.35-.09-5.06-.12-8.08-.12-6,0-10.89,1-10.89,1.77Z"/>
      <path class="cls-4" d="m50.8,122.56c-1.02,3.43,2.59,6.64,4.9,7.69.32.14.67.27,1.01.2.79-.15,1.06-1.14,1.12-1.94.12-1.63,0-3.23-.21-4.85-.11-.85-.06-1.95-.58-2.68-1.49-2.11-5.22-1.85-6.25,1.58Z"/>
      <g>
        <path class="cls-4" d="m80.96,143.52c-1.8,1.8-7.45,1.71-11.34-.31s-5.28-4.35-2.64-6.76c2.5-2.28,8.31-1.36,11.9.75,2.82,1.65,4.1,4.3,2.08,6.32Z"/>
        <path class="cls-3" d="m78.47,144.63s-.58-.91-1.39-1.57"/>
        <path class="cls-3" d="m80.96,143.52s-.3-.85-1.66-1.67"/>
      </g>
      <g>
        <path class="cls-4" d="m88.18,134.63c2.36,2.56,11.8,7.84,16.41,3.22,5.41-5.43-7.15-9.97-10.89-9.86-2.49.08-3.9.57-5.23,1.77-1.15,1.03-1.65,3.39-.29,4.86Z"/>
        <path class="cls-3" d="m103.64,138.62s-.82-1.19-2.18-1.74"/>
        <path class="cls-3" d="m105.21,137.12s-.4-1.22-2.31-1.99"/>
      </g>
      <g>
        <path class="cls-7" d="m84.66,95.58c4.22.93,15.05,8.47,16.79,10.68,2.08,2.66.58,4.95-1.1,5.95-1.79,1.06-4.19,1.53-7.69.36-2.36-.79-10.72-5.51-10.72-5.51"/>
        <path class="cls-5" d="m84.66,95.58c4.22.93,15.05,8.47,16.79,10.68,2.08,2.66.58,4.95-1.1,5.95-1.79,1.06-4.19,1.53-7.69.36-2.36-.79-10.72-5.51-10.72-5.51"/>
      </g>
      <g>
        <path class="cls-7" d="m90.12,103.07c2.82,2.31,7.88,9.27,8.66,15.76.37,3.12.82,6.76-1.63,10.48-2.13,3.25-6.52,5.8-10.13,7.22-7.92,3.11-17.32,4.22-25.86.93-2.09-.81-4.17-2.75-5.42-4.6-1.56-2.3-1.84-5.53-.43-9.51.15-.42-.91-5.03-.16-10,9.96-7.34,22.13-10.07,34.98-10.29Z"/>
        <path class="cls-10" d="m90.29,129.47c-4.43,2.18-12.87,3.36-17.8,3.03-3.15-.21-6.4-1.28-8.46-3.67-2.3-2.66-2.55-5.87-4.76-8.6-1.13-1.39-2.69-2.42-4.41-2.93.01,3.25.54,5.75.43,6.06-1.41,3.98-1.13,7.2.43,9.51,1.26,1.86,3.33,3.8,5.42,4.6,8.54,3.29,17.94,2.18,25.86-.93,3.61-1.42,8-3.98,10.13-7.22,2.03-3.09,2.07-6.11,1.81-8.83-.74,2.91-2.93,6.16-8.67,8.98Z"/>
        <path class="cls-5" d="m90.12,103.07c2.82,2.31,7.88,9.27,8.66,15.76.37,3.12.82,6.76-1.63,10.48-2.13,3.25-6.52,5.8-10.13,7.22-7.92,3.11-17.32,4.22-25.86.93-2.09-.81-4.17-2.75-5.42-4.6-1.56-2.3-1.84-5.53-.43-9.51.15-.42-.91-5.03-.16-10"/>
      </g>
      <path class="cls-10" d="m44.46,72.07c-5.02,2.23-14.44,3.91-18.96,4.75-4.15.78-8.41,1.34-9.28,3.87-1.27,3.66,5.69,14.3,22.89,9.73"/>
      <path class="cls-9" d="m20.22,86.85c-.8,1.96,5.69,5.67,14.61,4.43,0,0,3.19-2.04,5.94-9.36,0,0-5.27,1.51-10.36,2.44-4.57.83-9.4.55-10.19,2.49Z"/>
      <path class="cls-7" d="m86.9,101c3.73-5.38,3.98-10.91,2-17.61-1.69-5.75-10.12-15.19-20.32-17.76-8.62-2.17-22.51-.14-30.49,12.35-2.49,3.9-7.98,17.38-2.62,28.43,5.35,11.05,15.72,10.86,23.34,9.19,11.11-2.25,20.67-6.83,28.09-14.6Z"/>
      <path class="cls-5" d="m44.46,72.07c-5.02,2.23-14.44,3.91-18.96,4.75-4.15.78-8.41,1.34-9.28,3.87-1.27,3.66,5.69,14.3,22.89,9.73"/>
      <g>
        <path class="cls-10" d="m46.74,97.1c.6-3.68-1.76-4.29-2.82-11.51-1.04-7.04.98-12.22,4.79-17.45-3.51,1.9-7.46,4.87-10.63,9.83-2.49,3.9-7.98,17.38-2.62,28.43.24.5,3.41-.54,5.82-1.99,4.44-2.66,5.07-4.9,5.46-7.31Z"/>
        <path class="cls-10" d="m45.47,86.01c1.1,3.14,3.35,6.17,5.64,7.35,2.67,1.38,6.35.69,11.27-1.19,7.16-2.74,15.77-8.41,21.28-6.73,6.52,1.98,4.32,13.85,4.32,13.85,3.15-5.86,2.68-9.04.92-15.91-1.49-5.8-10.12-15.19-20.32-17.76-4.89-1.23-12.17-1.07-18.9,2.03-3.85,4.06-6.2,12.65-4.21,18.35Z"/>
      </g>
      <path class="cls-5" d="m86.9,101c3.73-5.38,3.98-10.91,2-17.61-1.69-5.75-10.12-15.19-20.32-17.76-8.62-2.17-22.51-.14-30.49,12.35-2.49,3.9-7.98,17.38-2.62,28.43,5.35,11.05,15.72,10.86,23.34,9.19"/>
      <g>
        <path class="cls-10" d="m83.66,75.17c-4.12-5.97-13-12.32-19.72-17.11-7.99-5.71-16.13-10.07-20.5-6.57-3.17,2.55.07,14.73,7.89,20.79"/>
        <path class="cls-5" d="m83.66,75.17c-4.12-5.97-13-12.32-19.72-17.11-7.99-5.71-16.13-10.07-20.5-6.57-3.17,2.55.07,14.73,7.89,20.79"/>
        <path class="cls-9" d="m46.6,58.48c-2.18.97.23,8.27,6.38,12.88,0,0,4.42,2.16,14.68-1.03,0,0-5.44-2.68-10.29-5.89-4.36-2.89-8.63-6.92-10.77-5.96Z"/>
      </g>
      <g>
        <path class="cls-3" d="m62.55,81.91s-6.34,5.78-7.42,9.63c0,0,4.74-3.31,9.63-5.2"/>
        <path class="cls-3" d="m38.01,95.35s4.37-.75,8.04.91c0,0-3.72.44-6.54,3.06"/>
        <path class="cls-1" d="m52.99,93.82s-8.77.88-6.9,8.33"/>
        <path d="m49.56,94.95c-.69.28-1.92.78-2.7,1.56-.74.73-.85,1.06-1.12,1.71.37.61,1.84,1.53,3.09.73,1.39-1.18.94-3.43.74-4Z"/>
        <path class="cls-3" d="m48.21,97.86s1.45,2.38,2.9,2.8"/>
        <path class="cls-3" d="m49.32,102.63s2.14-.18,1.8-1.97c0,0,4.24,1.25,7.35-3"/>
        <path class="cls-3" d="m50.28,85.9s1.71.83,3.97-2.18"/>
        <path class="cls-2" d="m57.36,98.91c-2.92,2.72-6.25,1.75-6.25,1.75.05.26-.13.92-.17,1.11,2.75,3.13,9.23,4.55,10.71,1.68s-2.6-4.12-4.3-4.54Z"/>
        <path class="cls-3" d="m53.69,100.74s2.05.59,4,1.42"/>
      </g>
      <g>
        <path class="cls-5" d="m79.96,56.84s1.28-8.5,5.71-7.11-2.85,8.97-2.85,8.97"/>
        <path class="cls-5" d="m84.27,63.96s3.17-2.73,4.32-.68-3.04,3.8-3.04,3.8"/>
        <path class="cls-5" d="m63.44,46.57s-2.24-9.36,2.89-7.83c3.63,1.08.49,7.83.49,7.83"/>
        <path class="cls-5" d="m25.4,64.2s-5.72-5.04-7.45-1.5c-1.87,3.83,5.24,5.44,5.24,5.44"/>
        <path class="cls-5" d="m8.49,83.86s-8.25-1.62-7.21,2.77c.87,3.68,7.63.94,7.63.94"/>
      </g>
      <path class="cls-6" d="m37.81,145.1c-2.8,0-5.44,0-8.32-.53-1.82-.33-6.12-.87-6.12-3.8,0-4.84,12.12-4.98,13.5-4.98s5.97,0,7.63.13c1.42.1,3.63.39,5.57.9,2.88.75,4.39,1.76,4.74,3.18.18.7.04,1.41-.39,2.02-1.11,1.58-4.15,2.08-6.49,2.4-3.46.47-6.8.68-10.14.68Zm-11.2-4.37c0,.6,4.35,1.4,5.69,1.52,5.58.5,8.64.04,14.93-.56,1.8-.17,4-.49,4.23-1.15s-4.07-1.34-7.18-1.56c-1.24-.09-4.64-.12-7.41-.12-5.57,0-10.27,1.27-10.27,1.87Z"/>
      <path class="cls-6" d="m32.4,141.83c-.81,0-1.62-.01-2.42-.04h0c-1.73-.05-3.74-.17-5.64-.87-1.75-.64-2.72-1.93-2.54-3.36.12-.99.8-1.66,1.02-1.88,1.85-1.85,4.48-2.44,6.81-2.78,3.98-.58,7.99-.74,11.92-.46,3.25.23,6.3.74,9.09,1.54,2.1.6,2.5,1.85,2.56,2.54.08,1.01-.49,1.99-1.52,2.61-.72.43-1.48.64-2.2.82-4.52,1.1-9.44,1.71-15.04,1.85-.68.02-1.36.03-2.05.03Zm-7.02-3.93c.06.77,3.13.79,4.69.83h0c1.42.04,2.87.05,4.3,0,5.37-.14,10.08-.71,14.39-1.77.22-.05.44-.11.64-.17-2.48-.67-5.18-1.11-8.06-1.31-3.71-.26-7.5-.11-11.27.44-1.92.28-4.75,1.19-4.69,1.97Z"/>
      <path class="cls-6" d="m36.88,138.65c11-.74,17.96-3.24,24.02-8.65,2.85-2.54,5.22-5.76,7.52-8.87,2.77-3.75,5.63-7.63,9.45-10.57,1.13-.87,2.88-2.08,4.99-2.51.83-.17,1.63.37,1.8,1.19.17.83-.37,1.63-1.19,1.8-1.13.23-2.32.84-3.73,1.93-3.48,2.68-6.09,6.22-8.86,9.96-2.39,3.23-4.85,6.58-7.94,9.33-6.53,5.82-14.26,8.64-25.85,9.41-.03,0-.07,0-.1,0"/>
      <polyline class="cls-6" points="130.1 111.01 83.93 111.01 83.93 108.03 130.1 108.03"/>
      <g>
        <path class="cls-7" d="m96.75,112.61c.54,2.72,5.86,3.22,8.66,2.67,1.33-.26,2.62-.85,3.58-1.84s1.54-2.4,1.4-3.79c-.2-2.01-1.91-3.61-3.8-4.09s-4.56-.24-6.52.81c-2.29,1.22-3.92,3.25-3.32,6.24Z"/>
        <path class="cls-10" d="m110.39,109.66c-.2-2.01-1.91-3.61-3.8-4.09s-4.56-.24-6.52.81c-2.29,1.22-3.92,3.25-3.32,6.24.09.46.33.86.66,1.2.94-1.13,3.2-3.2,7.42-3.66,2.61-.29,4.39,0,5.55.42.04-.3.04-.61.01-.91Z"/>
        <path class="cls-5" d="m96.75,112.61c.54,2.72,5.86,3.22,8.66,2.67,1.33-.26,2.62-.85,3.58-1.84s1.54-2.4,1.4-3.79c-.2-2.01-1.91-3.61-3.8-4.09s-4.56-.24-6.52.81c-2.29,1.22-3.92,3.25-3.32,6.24Z"/>
        <path class="cls-3" d="m104.32,105.34s1.49.51,2.01,1.94"/>
        <path class="cls-3" d="m101.37,105.83s2.02.37,2.28,2.24"/>
      </g>
      <g>
        <path class="cls-7" d="m73.12,107.27c4.42-1.38,12.22-1.92,15.77.52,2.29,1.58,2.23,3.56,1.24,5.77-1.04,2.34-3.73,3.53-7.57,3.89-4.28.4-10.07-.69-13.09-1.86"/>
        <path class="cls-10" d="m88.89,107.79c-.91-.63-2.1-1.06-3.43-1.33.79,1.34,1.19,2.92.86,4.63-.49,2.53-2.8,4.88-6.14,6.44.83.01,1.64,0,2.39-.08,3.84-.36,6.53-1.55,7.57-3.89.98-2.21,1.05-4.19-1.24-5.77Z"/>
        <path class="cls-5" d="m73.12,107.27c4.42-1.38,12.22-1.92,15.77.52,2.29,1.58,2.23,3.56,1.24,5.77-1.04,2.34-3.73,3.53-7.57,3.89-4.28.4-10.07-.69-13.09-1.86"/>
        <path class="cls-3" d="m88.1,110.07s1.72.05,2.67.67"/>
        <path class="cls-3" d="m87.64,112.46s1.99-.03,2.77.44"/>
      </g>
    </g>
  </g>
</svg>